<?xml version="1.0" encoding="utf-8"?>
<!-- Generator: Adobe Adobe Illustrator 24.2.0, SVG Export Plug-In . SVG Version: 6.00 Build 0)  -->
<svg version="1.1" id="Layer_1" xmlns="http://www.w3.org/2000/svg" xmlns:xlink="http://www.w3.org/1999/xlink" x="0px" y="0px"
	 width="225px" height="155px" viewBox="0 0 225 155" style="enable-background:new 0 0 225 155;" xml:space="preserve">
<style type="text/css">
	.st0{fill:none;stroke:#243637;stroke-width:4.5;stroke-miterlimit:10;}
</style>
<g>
	<line class="st0" x1="140.32" y1="58.02" x2="140.32" y2="133.74"/>
	<line class="st0" x1="191.74" y1="58.02" x2="191.74" y2="133.74"/>
	<polygon class="st0" points="124.34,23.31 70.29,99.83 33.38,152.09 31.58,152.09 68.68,99.83 122.96,23.34 	"/>
	<polyline class="st0" points="70.29,99.83 140.32,99.83 191.74,99.83 	"/>
	<path class="st0" d="M31.56,152.12l0.02-0.03l-14.86,0.03c-7.31,0-13.22-5.91-13.22-13.23V16.11c0-7.29,5.91-13.23,13.22-13.23
		h191.56c7.31,0,13.22,5.94,13.22,13.23v122.78c0,7.32-5.91,13.23-13.22,13.23H67.12"/>
</g>
</svg>
